# xmcd CD database file
# Generated: Tue Sep 3 15:39:45 2002 by KSCD
# 
# Track frame offsets:
#       150
#       13076
#       25807
#       39511
#       53178
#       69229
#       81925
#       97547
#       112018
#       126216
#       143969
#       158128
#       174341
#       182057
#       186161
#       190262
#       193272
#       196282
#       203282
#       208316
#       215300
#       220508
#       227722
#       234936
#       240290
#       245503
#       252339
#       259175
#       264201
#       269227
#       273314
#       276595
#       283984
#       289466
#       295796
#       300271
#       304466
#       308673
#       311964
#       315253
#
# Disc length: 4334 seconds
#
# Revision: 1
# Processed by: cddbd v1.4PL0 Copyright (c) Steve Scherf et al.
# Submitted via: Kscd 1.3.3
#
DISCID=5510ec28
DTITLE=Jay Buckey - Virtual Band Banjo V4
DYEAR=1900
DGENRE=
TTITLE0=Fireball Mail 220bpm
TTITLE1=Gold Rush 200bpm
TTITLE2=Blue Kentucky Girl 120bpm
TTITLE3=Ragtime Annie 200bpm
TTITLE4=Clinch Mountain Backstep 200bpm
TTITLE5=Some Old Day 150bpm
TTITLE6=Banjo Signal 200bpm
TTITLE7=How Mountain Girls Can Love 220bpm
TTITLE8=Wheel Hoss 200bpm
TTITLE9=Wayfaring Stranger 145bpm
TTITLE10=Shenandoah Breakdown 230bpm
TTITLE11=Think of What You've Done 220bpm
TTITLE12=Jerusalem Ridge 200bpm
TTITLE13=Fireball Mail Low Part 100bpm
TTITLE14=Fireball Mail High Solo 100bpm
TTITLE15=Fireball Mail Low Part 150bpm
TTITLE16=Fireball Mail High Solo 150bpm
TTITLE17=Gold Rush 100bpm
TTITLE18=Gold Rush 150bpm
TTITLE19=Ragtime Annie 100bpm
TTITLE20=Ragtime Annie 150bpm
TTITLE21=Clinch Mountain Backstep Solo 2 100bpm
TTITLE22=Clinch Mountain Backstep Solo 2 100bpm
TTITLE23=Clinch Mountain Backstep Solo 1 150bpm
TTITLE24=Clinch Mountain Backstep Solo 2 150bpm
TTITLE25=Banjo Signal Solo 1 100bpm
TTITLE26=Banjo Signal Solo 2 100bpm
TTITLE27=Banjo Signal Solo 1 150bpm
TTITLE28=Banjo Signal Solo 2 150bpm
TTITLE29=How Mountain Girls Can Love 100bpm
TTITLE30=How Mountain Girls Can Love 150bpm
TTITLE31=Wheel Hoss 100bpm
TTITLE32=Wheel Hoss 150bpm
TTITLE33=Shenandoah Breakdown 115bpm
TTITLE34=Shenandoah Breakdown 180bpm
TTITLE35=Think of What You've Done Solo 1 100bpm
TTITLE36=Think of What You've Done solo 2 100bpm
TTITLE37=Think of What You've Done 150bpm
TTITLE38=Think of What You've Done solo 2 150bpm
TTITLE39=Jerusalem Ridge 150bpm
EXTD=
EXTT0=
EXTT1=
EXTT2=
EXTT3=
EXTT4=
EXTT5=
EXTT6=
EXTT7=
EXTT8=
EXTT9=
EXTT10=
EXTT11=
EXTT12=
EXTT13=
EXTT14=
EXTT15=
EXTT16=
EXTT17=
EXTT18=
EXTT19=
EXTT20=
EXTT21=
EXTT22=
EXTT23=
EXTT24=
EXTT25=
EXTT26=
EXTT27=
EXTT28=
EXTT29=
EXTT30=
EXTT31=
EXTT32=
EXTT33=
EXTT34=
EXTT35=
EXTT36=
EXTT37=
EXTT38=
EXTT39=
PLAYORDER=
